<?xml version="1.0"?>
<svg xmlns="http://www.w3.org/2000/svg" viewBox="0 0 64 64" width="512" height="512"><g id="earth-pin-locations"><path d="M54,2a7.953,7.953,0,0,0-7.74,9.97l-2.01,3.74a25.947,25.947,0,0,0-10.74-5.12,26.262,26.262,0,0,0-13.55.68A25.938,25.938,0,0,0,2,36,25.662,25.662,0,0,0,4.36,46.83a26.028,26.028,0,0,0,15.92,14c.04.02.08.03.13.05A26.316,26.316,0,0,0,28,62,25.991,25.991,0,0,0,49.38,50.78a25.635,25.635,0,0,0,3.5-7.21,25.957,25.957,0,0,0-4.61-23.81l3.76-2.02A7.994,7.994,0,1,0,54,2ZM4,36A23.916,23.916,0,0,1,19.62,13.53l1.36,4.53-.91,5.41-5.71,4.76A.992.992,0,0,0,14,29v5.84l-1.84,5.53L5.7,44.89A23.746,23.746,0,0,1,4,36ZM28,60a23.9,23.9,0,0,1-6.02-.78l.95-2.84,1.96-3.93a1,1,0,0,0-.09-1.05l-2.89-3.85-1.76-6.16,3.29-2.47,3.42-.85,8.65,4.8a.914.914,0,0,0,.14.07l7.76,2.91,3.87,4.41A23.971,23.971,0,0,1,28,60ZM48.44,48.55l-3.69-4.21a1.036,1.036,0,0,0-.4-.28l-7.93-2.97-8.93-4.96a.99.99,0,0,0-.73-.1l-4,1a.993.993,0,0,0-.36.17l-4,3a.99.99,0,0,0-.36,1.07l2,7a1.011,1.011,0,0,0,.16.33l2.63,3.51-1.72,3.44a1.392,1.392,0,0,0-.06.13l-.98,2.97A24.032,24.032,0,0,1,6.54,46.74l7.03-4.92a.992.992,0,0,0,.38-.5l2-6A1.185,1.185,0,0,0,16,35V29.47l5.64-4.7a1.053,1.053,0,0,0,.35-.61l1-6a1.144,1.144,0,0,0-.03-.45L21.52,12.9a24.147,24.147,0,0,1,10.41-.57l-.87,2.32a1.02,1.02,0,0,0-.04.55l.96,4.8-.96,4.8A1.355,1.355,0,0,0,31,25v6a1,1,0,0,0,.45.83l6,4a.992.992,0,0,0,.71.16l5.58-.93,3.51,2.63,3.57,5.71A23.863,23.863,0,0,1,48.44,48.55ZM52,36a24.2,24.2,0,0,1-.48,4.74l-2.67-4.27a1.073,1.073,0,0,0-.25-.27l-4-3a1.031,1.031,0,0,0-.76-.19l-5.61.94L33,30.46V25.1l.98-4.9a.9.9,0,0,0,0-.4l-.94-4.72.87-2.33a23.949,23.949,0,0,1,9.37,4.76l-2.16,4.02a1,1,0,0,0,.17,1.18A1.024,1.024,0,0,0,42,23a1,1,0,0,0,.47-.12l4.01-2.16A23.982,23.982,0,0,1,52,36ZM44.46,19.54l2.81-5.23a7.981,7.981,0,0,0,2.42,2.42ZM54,16a6,6,0,1,1,6-6A6,6,0,0,1,54,16Z"/></g></svg>
